<svg width="20" height="23" viewBox="0 0 20 23" fill="none" xmlns="http://www.w3.org/2000/svg">
<path d="M13.3431 10.5494C14.2536 10.5494 15.0231 11.1794 15.2384 12.0247C15.2522 12.0815 15.2529 12.1408 15.2403 12.1979C15.2277 12.2551 15.2023 12.3086 15.1659 12.3544C15.1295 12.4002 15.0831 12.437 15.0303 12.4622C14.9775 12.4873 14.9196 12.5001 14.8611 12.4994H14.2611C14.3126 12.3137 14.3203 12.1186 14.2837 11.9294C14.2471 11.7402 14.1672 11.5621 14.0502 11.4089C13.9332 11.2558 13.7824 11.1318 13.6095 11.0467C13.4366 10.9616 13.2463 10.9177 13.0536 10.9184C12.8897 10.9176 12.7272 10.9494 12.5756 11.012C12.424 11.0745 12.2864 11.1665 12.1707 11.2827C12.055 11.3989 11.9635 11.5369 11.9016 11.6888C11.8397 11.8406 11.8086 12.0032 11.8101 12.1672C11.8101 12.2849 11.8251 12.3959 11.8551 12.4994H11.7434C11.6962 12.4998 11.6496 12.4897 11.6068 12.4699C11.5639 12.4501 11.526 12.4212 11.4956 12.3851C11.4653 12.349 11.4432 12.3067 11.4311 12.2611C11.419 12.2155 11.417 12.1679 11.4254 12.1214C11.5131 11.6776 11.7523 11.2781 12.1022 10.9914C12.4521 10.7046 12.8908 10.5483 13.3431 10.5494ZM4.76088 12.0247C4.86928 11.5942 5.12093 11.2134 5.47447 10.945C5.828 10.6765 6.26237 10.5363 6.70615 10.5475C7.14993 10.5587 7.57669 10.7205 7.91627 11.0064C8.25585 11.2923 8.48803 11.6853 8.57463 12.1207C8.58314 12.1672 8.58127 12.2151 8.56914 12.2608C8.55701 12.3065 8.53493 12.349 8.50447 12.3852C8.47402 12.4213 8.43594 12.4504 8.39296 12.4701C8.34999 12.4899 8.30318 12.4999 8.25588 12.4994H8.14488C8.17488 12.3959 8.18913 12.2849 8.18913 12.1672C8.18913 11.4727 7.63413 10.9184 6.94488 10.9184C6.75224 10.9178 6.56208 10.9618 6.38927 11.047C6.21647 11.1321 6.06573 11.2561 5.94884 11.4092C5.83196 11.5624 5.75212 11.7405 5.71556 11.9296C5.679 12.1188 5.68673 12.3138 5.73813 12.4994H5.13813C5.07964 12.5001 5.02177 12.4873 4.96895 12.4622C4.91613 12.437 4.86975 12.4002 4.83336 12.3544C4.79697 12.3086 4.77152 12.2551 4.75896 12.1979C4.7464 12.1408 4.74705 12.0815 4.76088 12.0247Z" fill="#7E8494"/>
<path d="M12.3362 12.1676C12.3361 12.0273 12.3779 11.8902 12.4562 11.7738C12.4884 11.8563 12.5687 11.9148 12.6617 11.9148C12.7092 11.9143 12.7554 11.8988 12.7936 11.8704C12.8318 11.842 12.86 11.8023 12.8741 11.7569C12.8883 11.7114 12.8877 11.6627 12.8724 11.6176C12.8572 11.5726 12.828 11.5335 12.7892 11.5061C12.9242 11.453 13.0723 11.4426 13.2134 11.4762C13.3546 11.5098 13.4821 11.5859 13.5787 11.6941C13.6754 11.8024 13.7365 11.9376 13.754 12.0816C13.7715 12.2257 13.7444 12.3716 13.6764 12.4998H12.4187C12.3654 12.3971 12.3371 12.2833 12.3362 12.1676ZM6.94517 11.4581C7.06771 11.4578 7.18826 11.4892 7.29508 11.5492C7.4019 11.6093 7.49137 11.6959 7.55478 11.8008C7.6182 11.9057 7.6534 12.0251 7.65697 12.1476C7.66055 12.2701 7.63236 12.3915 7.57517 12.4998H6.31592C6.26314 12.397 6.23539 12.2832 6.23492 12.1676C6.23492 12.0386 6.26942 11.9171 6.33017 11.8128C6.35605 11.8536 6.39455 11.8848 6.43981 11.9016C6.48507 11.9185 6.53459 11.92 6.58082 11.9061C6.62706 11.8922 6.66746 11.8635 6.69587 11.8244C6.72428 11.7854 6.73913 11.7381 6.73817 11.6898C6.73823 11.6572 6.73122 11.625 6.71763 11.5953C6.70403 11.5657 6.68417 11.5393 6.65942 11.5181C6.74948 11.4785 6.84679 11.4581 6.94517 11.4581ZM5.19992 9.42484L4.72217 8.85109C4.5693 8.977 4.47272 9.15848 4.45366 9.3556C4.44422 9.45321 4.4541 9.55172 4.48274 9.64551C4.51137 9.73929 4.5582 9.82652 4.62054 9.90221C4.68289 9.9779 4.75953 10.0406 4.8461 10.0866C4.93266 10.1327 5.02745 10.1613 5.12506 10.1707C5.32218 10.1898 5.5188 10.1298 5.67167 10.0038L5.67392 10.0016L5.68217 9.99559C5.69642 9.98509 5.72192 9.96709 5.75867 9.94309C5.83367 9.89809 5.94917 9.83284 6.10217 9.77209C6.51756 9.61024 6.96896 9.5636 7.40867 9.63709C7.6042 9.66792 7.80397 9.61981 7.96403 9.50335C8.12409 9.38689 8.23134 9.21162 8.26217 9.01609C8.293 8.82056 8.24489 8.62079 8.12843 8.46073C8.01197 8.30066 7.8367 8.19342 7.64117 8.16259C6.93793 8.04727 6.21662 8.1237 5.55317 8.38384C5.34913 8.46409 5.15282 8.56275 4.96667 8.67859C4.89209 8.72513 4.81976 8.77519 4.74992 8.82859L4.73342 8.84209L4.72667 8.84734L4.72442 8.84959L4.72292 8.85034C4.72292 8.85034 4.72217 8.85109 5.19992 9.42484ZM15.2019 8.85109C15.3465 8.97939 15.4357 9.15876 15.4508 9.35148C15.4659 9.54421 15.4057 9.73528 15.2829 9.88454C15.1601 10.0338 14.9841 10.1296 14.7921 10.1519C14.6001 10.1741 14.4069 10.1211 14.2532 10.0038L14.2427 9.99559C14.1115 9.90561 13.9706 9.83064 13.8227 9.77209C13.4073 9.61024 12.9559 9.5636 12.5162 9.63709C12.4194 9.65236 12.3205 9.6484 12.2252 9.62546C12.1299 9.60251 12.0401 9.56102 11.9608 9.50335C11.8815 9.44569 11.8144 9.37298 11.7633 9.28937C11.7121 9.20577 11.6779 9.11291 11.6627 9.01609C11.6474 8.91927 11.6514 8.8204 11.6743 8.72511C11.6972 8.62982 11.7387 8.53998 11.7964 8.46073C11.8541 8.38147 11.9268 8.31435 12.0104 8.2632C12.094 8.21204 12.1869 8.17786 12.2837 8.16259C12.9867 8.04737 13.7077 8.1238 14.3709 8.38384C14.6214 8.48284 14.8187 8.59159 14.9582 8.67859C15.0327 8.72513 15.1051 8.77519 15.1749 8.82859L15.1914 8.84209L15.1982 8.84734L15.2004 8.84959L15.2019 8.85109ZM9.99992 17.1753C9.40817 17.1753 8.85242 17.0501 8.38592 16.8303C8.22617 16.7576 8.05442 16.9203 8.15492 17.0501C8.54492 17.5826 9.22517 17.9373 9.99992 17.9373C10.7747 17.9373 11.4549 17.5826 11.8449 17.0501C11.9454 16.9151 11.7737 16.7576 11.6139 16.8311C11.1077 17.0629 10.5567 17.1807 9.99992 17.1761V17.1753Z" fill="#7E8494"/>
<path d="M16.7392 3.48324L17.3391 3.78174C18.3899 4.30449 18.9899 5.49774 18.7649 6.76599L18.1657 9.85449C18.6864 10.1333 19.1133 10.5596 19.3929 11.08C19.6724 11.6004 19.7921 12.1917 19.737 12.7799C19.6819 13.368 19.4545 13.9268 19.0831 14.3862C18.7118 14.8456 18.2132 15.1853 17.6497 15.3625L17.5161 17.35L17.5147 17.3672C17.2559 20.2232 14.9909 22.2497 12.2782 22.2497H7.78715C4.99115 22.2497 2.80865 20.2157 2.5499 17.3672L2.5484 17.3492L2.41865 15.3835C1.84579 15.2186 1.33503 14.8868 0.951513 14.4304C0.567994 13.974 0.329097 13.4137 0.265289 12.821C0.20148 12.2283 0.315653 11.6301 0.593245 11.1025C0.870838 10.575 1.29927 10.1421 1.8239 9.85899L1.2089 6.69099C1.0589 5.49774 1.6589 4.30449 2.70965 3.78174L3.30965 3.48324C3.68465 3.25974 4.05965 2.96124 4.43465 2.66274L5.7854 1.24524C6.6104 0.499737 7.81115 0.276237 8.86115 0.798237C9.62029 1.02173 10.4278 1.02173 11.1869 0.798237C12.3119 0.425487 13.5877 0.723237 14.4884 1.54449L15.6134 2.66274C15.9134 3.03624 16.2892 3.25974 16.7392 3.48324ZM16.5442 9.44274C16.5755 9.04158 16.5662 8.63828 16.5164 8.23899C16.2936 7.95399 16.1392 7.58349 16.1392 7.21299V6.78849C15.9033 6.20488 15.574 5.66355 15.1642 5.18574C14.1666 4.96449 12.4319 4.67724 10.0627 4.67724C7.65515 4.67724 5.90315 4.97349 4.91315 5.19624C4.52883 5.65662 4.2163 6.17244 3.98615 6.72624V7.21374C3.98615 7.61649 3.8639 8.01924 3.56615 8.31324C3.51995 8.68887 3.50765 9.0679 3.5294 9.44574L3.5819 10.2385C3.59127 10.3784 3.56124 10.5181 3.49522 10.6418C3.42921 10.7655 3.32984 10.8682 3.2084 10.9382L5.04965 16.3997C5.12465 16.7747 5.57465 16.8497 5.79965 16.6247L6.39965 16.0997C6.92465 15.6497 7.52465 15.4997 8.12465 15.4997H9.4499C9.33106 15.501 9.2136 15.4741 9.10712 15.4213C9.00065 15.3685 8.90817 15.2913 8.83723 15.1959C8.76629 15.1005 8.71891 14.9898 8.69896 14.8726C8.679 14.7554 8.68703 14.6352 8.7224 14.5217L9.4649 12.1442C9.63215 11.6185 10.3747 11.6185 10.5344 12.1442L11.2769 14.5217C11.3116 14.6352 11.3191 14.7552 11.2989 14.8721C11.2786 14.989 11.2312 15.0995 11.1604 15.1947C11.0896 15.2898 10.9974 15.367 10.8913 15.42C10.7851 15.473 10.668 15.5003 10.5494 15.4997H11.8747C12.5497 15.4997 13.1496 15.6497 13.5996 16.0997L14.1997 16.6247C14.4247 16.8497 14.8747 16.6997 14.9497 16.3997L16.8494 10.945C16.7317 10.8737 16.6358 10.7715 16.5723 10.6494C16.5088 10.5273 16.4801 10.39 16.4894 10.2527L16.5434 9.44949L16.5442 9.44274ZM1.74965 12.4997C1.74951 12.8631 1.88128 13.2142 2.12047 13.4877C2.35966 13.7612 2.69001 13.9387 3.05015 13.987L2.9129 11.6507L2.9159 11.752C2.63615 11.752 2.3924 11.6125 2.2304 11.3995C2.07867 11.5398 1.95762 11.7099 1.87488 11.8993C1.79215 12.0887 1.74951 12.2931 1.74965 12.4997ZM17.1359 11.7497L16.9829 13.9817C17.259 13.9383 17.5175 13.8186 17.7293 13.6362C17.941 13.4537 18.0975 13.2157 18.1812 12.949C18.2649 12.6823 18.2724 12.3975 18.2028 12.1267C18.1333 11.856 17.9895 11.6101 17.7877 11.4167C17.6482 11.6245 17.4261 11.7467 17.1359 11.7497ZM7.74965 17.3747V18.4997C7.74965 19.1747 8.34965 19.7747 9.09965 19.7747C9.24965 19.7747 9.32465 19.6247 9.32465 19.5497V19.4747C9.32465 19.0997 9.62465 18.7997 9.99965 18.7997C10.3747 18.7997 10.6747 19.0997 10.6747 19.4747V19.5497C10.6747 19.6997 10.8247 19.7747 10.8997 19.7747C11.5747 19.7747 12.2497 19.2497 12.2497 18.4997V17.3747C12.2497 16.9997 11.9902 16.6997 11.4997 16.6997H8.49965C8.02415 16.6997 7.74965 16.9997 7.74965 17.3747Z" fill="#7E8494"/>
</svg>
